<?xml version="1.0" encoding="iso-8859-1"?>
<!-- Generator: Adobe Illustrator 21.1.0, SVG Export Plug-In . SVG Version: 6.00 Build 0)  -->
<svg version="1.1" id="Layer_1" xmlns="http://www.w3.org/2000/svg" xmlns:xlink="http://www.w3.org/1999/xlink" x="0px" y="0px"
	 viewBox="0 0 100.355 100.352" style="enable-background:new 0 0 100.355 100.352;" xml:space="preserve">
<path d="M85.913,8.141c0-0.469-0.22-0.911-0.593-1.194c-0.373-0.284-0.858-0.378-1.31-0.25L26.725,22.643
	c-0.649,0.18-1.098,0.771-1.098,1.445v48.991c-2.252-2.601-5.569-4.256-9.272-4.256c-6.763,0-12.265,5.504-12.265,12.269
	c0,6.763,5.502,12.265,12.265,12.265c6.767,0,12.272-5.502,12.272-12.265V37.278l54.286-14.396v34.126
	c-2.252-2.601-5.57-4.257-9.273-4.257c-6.766,0-12.271,5.503-12.271,12.267c0,6.765,5.505,12.268,12.271,12.268
	c6.751,0,12.245-5.479,12.269-12.223c0-0.014,0.004-0.028,0.004-0.042V8.141z M16.355,90.357c-5.109,0-9.265-4.156-9.265-9.265
	c0-5.11,4.156-9.269,9.265-9.269c5.113,0,9.272,4.158,9.272,9.269C25.627,86.2,21.468,90.357,16.355,90.357z M28.627,34.174v-8.947
	l54.286-15.112v9.662L28.627,34.174z M73.64,74.284c-5.111,0-9.271-4.157-9.271-9.268c0-5.109,4.159-9.267,9.271-9.267
	c5.112,0,9.271,4.157,9.271,9.267C82.911,70.127,78.752,74.284,73.64,74.284z"/>
</svg>
